solid OpenSCAD_Model
  facet normal 0.649538 0.760329 -0
    outer loop
      vertex 7.32132 55.1213 27.025
      vertex 6.96336 55.4271 28.075
      vertex 7.32132 55.1213 28.075
    endloop
  endfacet
  facet normal 0.649538 0.760329 0
    outer loop
      vertex 6.96336 55.4271 28.075
      vertex 7.32132 55.1213 27.025
      vertex 6.96336 55.4271 27.025
    endloop
  endfacet
  facet normal 0.923873 -0.382699 0
    outer loop
      vertex 7.87302 51.638 28.075
      vertex 8.05317 52.0729 27.025
      vertex 8.05317 52.0729 28.075
    endloop
  endfacet
  facet normal 0.923873 -0.382699 0
    outer loop
      vertex 8.05317 52.0729 27.025
      vertex 7.87302 51.638 28.075
      vertex 7.87302 51.638 27.025
    endloop
  endfacet
  facet normal 0.0783858 0.996923 -0
    outer loop
      vertex 5.6693 55.9631 27.025
      vertex 5.2 56 28.075
      vertex 5.6693 55.9631 28.075
    endloop
  endfacet
  facet normal 0.0783858 0.996923 0
    outer loop
      vertex 5.2 56 28.075
      vertex 5.6693 55.9631 27.025
      vertex 5.2 56 27.025
    endloop
  endfacet
  facet normal 0.233453 -0.972368 0
    outer loop
      vertex 5.6693 50.0369 27.025
      vertex 6.12705 50.1468 28.075
      vertex 5.6693 50.0369 28.075
    endloop
  endfacet
  facet normal 0.233453 -0.972368 0
    outer loop
      vertex 6.12705 50.1468 28.075
      vertex 5.6693 50.0369 27.025
      vertex 6.12705 50.1468 27.025
    endloop
  endfacet
  facet normal 0.382775 0.923842 -0
    outer loop
      vertex 6.56197 55.673 27.025
      vertex 6.12705 55.8532 28.075
      vertex 6.56197 55.673 28.075
    endloop
  endfacet
  facet normal 0.382775 0.923842 0
    outer loop
      vertex 6.12705 55.8532 28.075
      vertex 6.56197 55.673 27.025
      vertex 6.12705 55.8532 27.025
    endloop
  endfacet
  facet normal -0.233453 0.972368 0
    outer loop
      vertex 4.7307 55.9631 27.025
      vertex 4.27295 55.8532 28.075
      vertex 4.7307 55.9631 28.075
    endloop
  endfacet
  facet normal -0.233453 0.972368 0
    outer loop
      vertex 4.27295 55.8532 28.075
      vertex 4.7307 55.9631 27.025
      vertex 4.27295 55.8532 27.025
    endloop
  endfacet
  facet normal 0.972379 -0.233409 0
    outer loop
      vertex 8.05317 52.0729 28.075
      vertex 8.16306 52.5307 27.025
      vertex 8.16306 52.5307 28.075
    endloop
  endfacet
  facet normal 0.972379 -0.233409 0
    outer loop
      vertex 8.16306 52.5307 27.025
      vertex 8.05317 52.0729 28.075
      vertex 8.05317 52.0729 27.025
    endloop
  endfacet
  facet normal 0.852648 -0.522486 0
    outer loop
      vertex 7.62705 51.2366 28.075
      vertex 7.87302 51.638 27.025
      vertex 7.87302 51.638 28.075
    endloop
  endfacet
  facet normal 0.852648 -0.522486 0
    outer loop
      vertex 7.87302 51.638 27.025
      vertex 7.62705 51.2366 28.075
      vertex 7.62705 51.2366 27.025
    endloop
  endfacet
  facet normal 0.233453 0.972368 -0
    outer loop
      vertex 6.12705 55.8532 27.025
      vertex 5.6693 55.9631 28.075
      vertex 6.12705 55.8532 28.075
    endloop
  endfacet
  facet normal 0.233453 0.972368 0
    outer loop
      vertex 5.6693 55.9631 28.075
      vertex 6.12705 55.8532 27.025
      vertex 5.6693 55.9631 27.025
    endloop
  endfacet
  facet normal 0.996916 0.0784703 0
    outer loop
      vertex 8.2 53 28.075
      vertex 8.16306 53.4693 27.025
      vertex 8.16306 53.4693 28.075
    endloop
  endfacet
  facet normal 0.996916 0.0784703 0
    outer loop
      vertex 8.16306 53.4693 27.025
      vertex 8.2 53 28.075
      vertex 8.2 53 27.025
    endloop
  endfacet
  facet normal -0.382683 0.92388 0
    outer loop
      vertex 4.27295 55.8532 27.025
      vertex 3.9859 55.7343 28.075
      vertex 4.27295 55.8532 28.075
    endloop
  endfacet
  facet normal -0.382683 0.92388 0
    outer loop
      vertex 3.9859 55.7343 28.075
      vertex 4.27295 55.8532 27.025
      vertex 3.9859 55.7343 27.025
    endloop
  endfacet
  facet normal 0.522387 0.852708 -0
    outer loop
      vertex 6.96336 55.4271 27.025
      vertex 6.56197 55.673 28.075
      vertex 6.96336 55.4271 28.075
    endloop
  endfacet
  facet normal 0.522387 0.852708 0
    outer loop
      vertex 6.56197 55.673 28.075
      vertex 6.96336 55.4271 27.025
      vertex 6.56197 55.673 27.025
    endloop
  endfacet
  facet normal 0.852648 0.522486 0
    outer loop
      vertex 7.87302 54.362 28.075
      vertex 7.62705 54.7634 27.025
      vertex 7.62705 54.7634 28.075
    endloop
  endfacet
  facet normal 0.852648 0.522486 0
    outer loop
      vertex 7.62705 54.7634 27.025
      vertex 7.87302 54.362 28.075
      vertex 7.87302 54.362 27.025
    endloop
  endfacet
  facet normal 0.996916 -0.0784703 0
    outer loop
      vertex 8.16306 52.5307 28.075
      vertex 8.2 53 27.025
      vertex 8.2 53 28.075
    endloop
  endfacet
  facet normal 0.996916 -0.0784703 0
    outer loop
      vertex 8.2 53 27.025
      vertex 8.16306 52.5307 28.075
      vertex 8.16306 52.5307 27.025
    endloop
  endfacet
  facet normal 0.760349 0.649515 0
    outer loop
      vertex 7.62705 54.7634 28.075
      vertex 7.32132 55.1213 27.025
      vertex 7.32132 55.1213 28.075
    endloop
  endfacet
  facet normal 0.760349 0.649515 0
    outer loop
      vertex 7.32132 55.1213 27.025
      vertex 7.62705 54.7634 28.075
      vertex 7.62705 54.7634 27.025
    endloop
  endfacet
  facet normal 0.649538 -0.760329 0
    outer loop
      vertex 6.96336 50.5729 27.025
      vertex 7.32132 50.8787 28.075
      vertex 6.96336 50.5729 28.075
    endloop
  endfacet
  facet normal 0.649538 -0.760329 0
    outer loop
      vertex 7.32132 50.8787 28.075
      vertex 6.96336 50.5729 27.025
      vertex 7.32132 50.8787 27.025
    endloop
  endfacet
  facet normal 0.760349 -0.649515 0
    outer loop
      vertex 7.32132 50.8787 28.075
      vertex 7.62705 51.2366 27.025
      vertex 7.62705 51.2366 28.075
    endloop
  endfacet
  facet normal 0.760349 -0.649515 0
    outer loop
      vertex 7.62705 51.2366 27.025
      vertex 7.32132 50.8787 28.075
      vertex 7.32132 50.8787 27.025
    endloop
  endfacet
  facet normal 0.522387 -0.852708 0
    outer loop
      vertex 6.56197 50.327 27.025
      vertex 6.96336 50.5729 28.075
      vertex 6.56197 50.327 28.075
    endloop
  endfacet
  facet normal 0.522387 -0.852708 0
    outer loop
      vertex 6.96336 50.5729 28.075
      vertex 6.56197 50.327 27.025
      vertex 6.96336 50.5729 27.025
    endloop
  endfacet
  facet normal 0.382775 -0.923842 0
    outer loop
      vertex 6.12705 50.1468 27.025
      vertex 6.56197 50.327 28.075
      vertex 6.12705 50.1468 28.075
    endloop
  endfacet
  facet normal 0.382775 -0.923842 0
    outer loop
      vertex 6.56197 50.327 28.075
      vertex 6.12705 50.1468 27.025
      vertex 6.56197 50.327 27.025
    endloop
  endfacet
  facet normal -0 0 1
    outer loop
      vertex -3.98647 52.1183 28.075
      vertex -3 48 28.075
      vertex -3.77341 52.5365 28.075
    endloop
  endfacet
  facet normal -0 0 1
    outer loop
      vertex -4.31832 51.7865 28.075
      vertex -3 48 28.075
      vertex -3.98647 52.1183 28.075
    endloop
  endfacet
  facet normal -0 0 1
    outer loop
      vertex -5 50.0157 28.075
      vertex -3 48 28.075
      vertex -4.31832 51.7865 28.075
    endloop
  endfacet
  facet normal 0 0 1
    outer loop
      vertex -3 48 28.075
      vertex -5 50.0157 28.075
      vertex -3.61803 48.0979 28.075
    endloop
  endfacet
  facet normal 0 0 1
    outer loop
      vertex -3.61803 48.0979 28.075
      vertex -5 50.0157 28.075
      vertex -3.90797 48.218 28.075
    endloop
  endfacet
  facet normal 0 0 1
    outer loop
      vertex -3.90797 48.218 28.075
      vertex -5 50.0157 28.075
      vertex -4.17557 48.382 28.075
    endloop
  endfacet
  facet normal 0 0 1
    outer loop
      vertex -4.17557 48.382 28.075
      vertex -5 50.0157 28.075
      vertex -4.4142 48.5858 28.075
    endloop
  endfacet
  facet normal 0 0 1
    outer loop
      vertex -5 50.0157 28.075
      vertex -4.31832 51.7865 28.075
      vertex -4.73647 51.5734 28.075
    endloop
  endfacet
  facet normal 0 0 1
    outer loop
      vertex -4.4142 48.5858 28.075
      vertex -5 50.0157 28.075
      vertex -4.61803 48.8244 28.075
    endloop
  endfacet
  facet normal 0 0 1
    outer loop
      vertex -4.61803 48.8244 28.075
      vertex -5 50.0157 28.075
      vertex -4.78201 49.092 28.075
    endloop
  endfacet
  facet normal 0 0 1
    outer loop
      vertex -4.78201 49.092 28.075
      vertex -5 50.0157 28.075
      vertex -4.9021 49.382 28.075
    endloop
  endfacet
  facet normal 0 0 1
    outer loop
      vertex -4.9021 49.382 28.075
      vertex -5 50.0157 28.075
      vertex -4.97537 49.6871 28.075
    endloop
  endfacet
  facet normal -0 0 1
    outer loop
      vertex -5.2 51.5 28.075
      vertex -5 50.0157 28.075
      vertex -4.73647 51.5734 28.075
    endloop
  endfacet
  facet normal 0 0 1
    outer loop
      vertex -5.2 51.5 28.075
      vertex -5.2 50 28.075
      vertex -5 50.0157 28.075
    endloop
  endfacet
  facet normal 0 0 1
    outer loop
      vertex -5.6693 50.0369 28.075
      vertex -5.2 51.5 28.075
      vertex -5.66352 51.5734 28.075
    endloop
  endfacet
  facet normal 0 0 1
    outer loop
      vertex -5.2 51.5 28.075
      vertex -5.6693 50.0369 28.075
      vertex -5.2 50 28.075
    endloop
  endfacet
  facet normal 0 0 1
    outer loop
      vertex -6.56197 50.327 28.075
      vertex -5.66352 51.5734 28.075
      vertex -6.08168 51.7865 28.075
    endloop
  endfacet
  facet normal 0 0 1
    outer loop
      vertex -5.66352 51.5734 28.075
      vertex -6.12705 50.1468 28.075
      vertex -5.6693 50.0369 28.075
    endloop
  endfacet
  facet normal 0 0 1
    outer loop
      vertex -7.32132 50.8787 28.075
      vertex -6.08168 51.7865 28.075
      vertex -6.41352 52.1183 28.075
    endloop
  endfacet
  facet normal 0 0 1
    outer loop
      vertex -5.66352 51.5734 28.075
      vertex -6.56197 50.327 28.075
      vertex -6.12705 50.1468 28.075
    endloop
  endfacet
  facet normal 0 0 1
    outer loop
      vertex -7.87302 51.638 28.075
      vertex -6.41352 52.1183 28.075
      vertex -6.62658 52.5365 28.075
    endloop
  endfacet
  facet normal 0 0 1
    outer loop
      vertex -8.16306 52.5307 28.075
      vertex -6.62658 52.5365 28.075
      vertex -6.7 53 28.075
    endloop
  endfacet
  facet normal -0 0 1
    outer loop
      vertex -7.87302 54.362 28.075
      vertex -6.41352 53.8817 28.075
      vertex -7.62705 54.7634 28.075
    endloop
  endfacet
  facet normal 0 0 1
    outer loop
      vertex -6.08168 51.7865 28.075
      vertex -6.96336 50.5729 28.075
      vertex -6.56197 50.327 28.075
    endloop
  endfacet
  facet normal 0 0 1
    outer loop
      vertex -6.41352 53.8817 28.075
      vertex -7.87302 54.362 28.075
      vertex -6.62658 53.4635 28.075
    endloop
  endfacet
  facet normal 0 0 1
    outer loop
      vertex -6.08168 51.7865 28.075
      vertex -7.32132 50.8787 28.075
      vertex -6.96336 50.5729 28.075
    endloop
  endfacet
  facet normal -0 0 1
    outer loop
      vertex -8.05317 53.9271 28.075
      vertex -6.62658 53.4635 28.075
      vertex -7.87302 54.362 28.075
    endloop
  endfacet
  facet normal 0 0 1
    outer loop
      vertex -6.41352 52.1183 28.075
      vertex -7.62705 51.2366 28.075
      vertex -7.32132 50.8787 28.075
    endloop
  endfacet
  facet normal -0 0 1
    outer loop
      vertex -8.16306 53.4693 28.075
      vertex -6.62658 53.4635 28.075
      vertex -8.05317 53.9271 28.075
    endloop
  endfacet
  facet normal 0 0 1
    outer loop
      vertex -6.41352 52.1183 28.075
      vertex -7.87302 51.638 28.075
      vertex -7.62705 51.2366 28.075
    endloop
  endfacet
  facet normal 0 0 1
    outer loop
      vertex -6.62658 53.4635 28.075
      vertex -8.16306 53.4693 28.075
      vertex -6.7 53 28.075
    endloop
  endfacet
  facet normal 0 0 1
    outer loop
      vertex -6.62658 52.5365 28.075
      vertex -8.05317 52.0729 28.075
      vertex -7.87302 51.638 28.075
    endloop
  endfacet
  facet normal 0 0 1
    outer loop
      vertex -8.2 53 28.075
      vertex -6.7 53 28.075
      vertex -8.16306 53.4693 28.075
    endloop
  endfacet
  facet normal 0 0 1
    outer loop
      vertex -6.62658 52.5365 28.075
      vertex -8.16306 52.5307 28.075
      vertex -8.05317 52.0729 28.075
    endloop
  endfacet
  facet normal 0 0 1
    outer loop
      vertex -6.7 53 28.075
      vertex -8.2 53 28.075
      vertex -8.16306 52.5307 28.075
    endloop
  endfacet
  facet normal 0 0 1
    outer loop
      vertex -4.97537 49.6871 28.075
      vertex -5 50.0157 28.075
      vertex -5 50 28.075
    endloop
  endfacet
  facet normal 0 0 1
    outer loop
      vertex 6.7 53 28.075
      vertex 8.2 53 28.075
      vertex 8.16306 53.4693 28.075
    endloop
  endfacet
  facet normal 0 0 1
    outer loop
      vertex 6.62658 53.4635 28.075
      vertex 8.16306 53.4693 28.075
      vertex 8.05317 53.9271 28.075
    endloop
  endfacet
  facet normal 0 0 1
    outer loop
      vertex 8.2 53 28.075
      vertex 6.7 53 28.075
      vertex 8.16306 52.5307 28.075
    endloop
  endfacet
  facet normal 0 0 1
    outer loop
      vertex 6.62658 53.4635 28.075
      vertex 8.05317 53.9271 28.075
      vertex 7.87302 54.362 28.075
    endloop
  endfacet
  facet normal -0 0 1
    outer loop
      vertex 6.62658 52.5365 28.075
      vertex 8.16306 52.5307 28.075
      vertex 6.7 53 28.075
    endloop
  endfacet
  facet normal 0 0 1
    outer loop
      vertex 6.41352 53.8817 28.075
      vertex 7.87302 54.362 28.075
      vertex 7.62705 54.7634 28.075
    endloop
  endfacet
  facet normal 0 0 1
    outer loop
      vertex 8.16306 52.5307 28.075
      vertex 6.62658 52.5365 28.075
      vertex 8.05317 52.0729 28.075
    endloop
  endfacet
  facet normal 0 0 1
    outer loop
      vertex 6.41352 53.8817 28.075
      vertex 7.62705 54.7634 28.075
      vertex 7.32132 55.1213 28.075
    endloop
  endfacet
  facet normal 0 0 1
    outer loop
      vertex 8.05317 52.0729 28.075
      vertex 6.62658 52.5365 28.075
      vertex 7.87302 51.638 28.075
    endloop
  endfacet
  facet normal 0 0 1
    outer loop
      vertex 6.08168 54.2135 28.075
      vertex 7.32132 55.1213 28.075
      vertex 6.96336 55.4271 28.075
    endloop
  endfacet
  facet normal -0 0 1
    outer loop
      vertex 6.41352 52.1183 28.075
      vertex 7.87302 51.638 28.075
      vertex 6.62658 52.5365 28.075
    endloop
  endfacet
  facet normal 0 0 1
    outer loop
      vertex 7.87302 51.638 28.075
      vertex 6.41352 52.1183 28.075
      vertex 7.62705 51.2366 28.075
    endloop
  endfacet
  facet normal 0 0 1
    outer loop
      vertex 8.16306 53.4693 28.075
      vertex 6.62658 53.4635 28.075
      vertex 6.7 53 28.075
    endloop
  endfacet
  facet normal 0 0 1
    outer loop
      vertex 6.08168 54.2135 28.075
      vertex 6.96336 55.4271 28.075
      vertex 6.56197 55.673 28.075
    endloop
  endfacet
  facet normal 0 0 1
    outer loop
      vertex 7.87302 54.362 28.075
      vertex 6.41352 53.8817 28.075
      vertex 6.62658 53.4635 28.075
    endloop
  endfacet
  facet normal 0 0 1
    outer loop
      vertex 5.66352 54.4266 28.075
      vertex 6.56197 55.673 28.075
      vertex 6.12705 55.8532 28.075
    endloop
  endfacet
  facet normal 0 0 1
    outer loop
      vertex 7.32132 55.1213 28.075
      vertex 6.08168 54.2135 28.075
      vertex 6.41352 53.8817 28.075
    endloop
  endfacet
  facet normal 0 0 1
    outer loop
      vertex 5.66352 54.4266 28.075
      vertex 6.12705 55.8532 28.075
      vertex 5.6693 55.9631 28.075
    endloop
  endfacet
  facet normal 0 0 1
    outer loop
      vertex 6.56197 55.673 28.075
      vertex 5.66352 54.4266 28.075
      vertex 6.08168 54.2135 28.075
    endloop
  endfacet
  facet normal 0 0 1
    outer loop
      vertex 5.2 54.5 28.075
      vertex 5.6693 55.9631 28.075
      vertex 5.2 56 28.075
    endloop
  endfacet
  facet normal 0 0 1
    outer loop
      vertex 5.6693 55.9631 28.075
      vertex 5.2 54.5 28.075
      vertex 5.66352 54.4266 28.075
    endloop
  endfacet
  facet normal -0 0 1
    outer loop
      vertex 4.7307 55.9631 28.075
      vertex 5.2 54.5 28.075
      vertex 5.2 56 28.075
    endloop
  endfacet
  facet normal 0 0 1
    outer loop
      vertex 5.2 54.5 28.075
      vertex 4.7307 55.9631 28.075
      vertex 4.73647 54.4266 28.075
    endloop
  endfacet
  facet normal -0 0 1
    outer loop
      vertex 4.27295 55.8532 28.075
      vertex 4.73647 54.4266 28.075
      vertex 4.7307 55.9631 28.075
    endloop
  endfacet
  facet normal -0 0 1
    outer loop
      vertex 3.9859 55.7343 28.075
      vertex 4.73647 54.4266 28.075
      vertex 4.27295 55.8532 28.075
    endloop
  endfacet
  facet normal 0 0 1
    outer loop
      vertex 4.73647 54.4266 28.075
      vertex 3.9859 55.7343 28.075
      vertex 4.31832 54.2135 28.075
    endloop
  endfacet
  facet normal 0 0 1
    outer loop
      vertex 4.31832 54.2135 28.075
      vertex 3.9859 55.7343 28.075
      vertex 3.98647 53.8817 28.075
    endloop
  endfacet
  facet normal 0 0 1
    outer loop
      vertex 3.90799 55.782 28.075
      vertex 3.98647 53.8817 28.075
      vertex 3.9859 55.7343 28.075
    endloop
  endfacet
  facet normal 0 0 1
    outer loop
      vertex 3.61804 55.9021 28.075
      vertex 3.98647 53.8817 28.075
      vertex 3.90799 55.782 28.075
    endloop
  endfacet
  facet normal 0 0 1
    outer loop
      vertex 3.31288 55.9754 28.075
      vertex 3.98647 53.8817 28.075
      vertex 3.61804 55.9021 28.075
    endloop
  endfacet
  facet normal 0 0 1
    outer loop
      vertex 3 56 28.075
      vertex 3.98647 53.8817 28.075
      vertex 3.31288 55.9754 28.075
    endloop
  endfacet
  facet normal 0 0 1
    outer loop
      vertex 7.62705 51.2366 28.075
      vertex 6.41352 52.1183 28.075
      vertex 7.32132 50.8787 28.075
    endloop
  endfacet
  facet normal -0 0 1
    outer loop
      vertex 6.08168 51.7865 28.075
      vertex 7.32132 50.8787 28.075
      vertex 6.41352 52.1183 28.075
    endloop
  endfacet
  facet normal 0 0 1
    outer loop
      vertex 7.32132 50.8787 28.075
      vertex 6.08168 51.7865 28.075
      vertex 6.96336 50.5729 28.075
    endloop
  endfacet
  facet normal 0 0 1
    outer loop
      vertex 6.96336 50.5729 28.075
      vertex 6.08168 51.7865 28.075
      vertex 6.56197 50.327 28.075
    endloop
  endfacet
  facet normal -0 0 1
    outer loop
      vertex 5.66352 51.5734 28.075
      vertex 6.56197 50.327 28.075
      vertex 6.08168 51.7865 28.075
    endloop
  endfacet
  facet normal 0 0 1
    outer loop
      vertex 6.56197 50.327 28.075
      vertex 5.66352 51.5734 28.075
      vertex 6.12705 50.1468 28.075
    endloop
  endfacet
  facet normal 0 0 1
    outer loop
      vertex 6.12705 50.1468 28.075
      vertex 5.66352 51.5734 28.075
      vertex 5.6693 50.0369 28.075
    endloop
  endfacet
  facet normal -0 0 1
    outer loop
      vertex 5.2 51.5 28.075
      vertex 5.6693 50.0369 28.075
      vertex 5.66352 51.5734 28.075
    endloop
  endfacet
  facet normal 0 0 1
    outer loop
      vertex 5.2 51.5 28.075
      vertex 5.2 50 28.075
      vertex 5.6693 50.0369 28.075
    endloop
  endfacet
  facet normal 0 0 1
    outer loop
      vertex 5.2 51.5 28.075
      vertex 5 50.0157 28.075
      vertex 5.2 50 28.075
    endloop
  endfacet
  facet normal 0 0 1
    outer loop
      vertex 5 50.0157 28.075
      vertex 4.97539 49.6871 28.075
      vertex 5 50 28.075
    endloop
  endfacet
  facet normal 0 0 1
    outer loop
      vertex 5 50.0157 28.075
      vertex 4.90211 49.382 28.075
      vertex 4.97539 49.6871 28.075
    endloop
  endfacet
  facet normal 0 0 1
    outer loop
      vertex 4.73647 51.5734 28.075
      vertex 5 50.0157 28.075
      vertex 5.2 51.5 28.075
    endloop
  endfacet
  facet normal 0 0 1
    outer loop
      vertex 4.31832 51.7865 28.075
      vertex 5 50.0157 28.075
      vertex 4.73647 51.5734 28.075
    endloop
  endfacet
  facet normal 0 0 1
    outer loop
      vertex 3 48 28.075
      vertex 5 50.0157 28.075
      vertex 4.31832 51.7865 28.075
    endloop
  endfacet
  facet normal 0 0 1
    outer loop
      vertex 5 50.0157 28.075
      vertex 3 48 28.075
      vertex 4.90211 49.382 28.075
    endloop
  endfacet
  facet normal 0 0 1
    outer loop
      vertex 4.90211 49.382 28.075
      vertex 3 48 28.075
      vertex 4.78203 49.092 28.075
    endloop
  endfacet
  facet normal 0 0 1
    outer loop
      vertex 4.78203 49.092 28.075
      vertex 3 48 28.075
      vertex 4.61804 48.8244 28.075
    endloop
  endfacet
  facet normal 0 0 1
    outer loop
      vertex 4.61804 48.8244 28.075
      vertex 3 48 28.075
      vertex 4.41422 48.5858 28.075
    endloop
  endfacet
  facet normal 0 0 1
    outer loop
      vertex 3 48 28.075
      vertex 4.31832 51.7865 28.075
      vertex 3.98647 52.1183 28.075
    endloop
  endfacet
  facet normal 0 0 1
    outer loop
      vertex 4.41422 48.5858 28.075
      vertex 3 48 28.075
      vertex 4.17558 48.382 28.075
    endloop
  endfacet
  facet normal 0 0 1
    outer loop
      vertex 3 48 28.075
      vertex 3.98647 52.1183 28.075
      vertex 3.77341 52.5365 28.075
    endloop
  endfacet
  facet normal -0 0 1
    outer loop
      vertex -3.7 53 28.075
      vertex 3.77341 52.5365 28.075
      vertex 3.7 53 28.075
    endloop
  endfacet
  facet normal 0 0 1
    outer loop
      vertex 4.17558 48.382 28.075
      vertex 3 48 28.075
      vertex 3.90799 48.218 28.075
    endloop
  endfacet
  facet normal 0 0 1
    outer loop
      vertex 3.98647 53.8817 28.075
      vertex 3 56 28.075
      vertex 3.77341 53.4635 28.075
    endloop
  endfacet
  facet normal 0 0 1
    outer loop
      vertex 3.77341 53.4635 28.075
      vertex 3 56 28.075
      vertex 3.7 53 28.075
    endloop
  endfacet
  facet normal 0 0 1
    outer loop
      vertex -3.7 53 28.075
      vertex 3.7 53 28.075
      vertex 3 56 28.075
    endloop
  endfacet
  facet normal 0 0 1
    outer loop
      vertex 3.90799 48.218 28.075
      vertex 3 48 28.075
      vertex 3.61804 48.0979 28.075
    endloop
  endfacet
  facet normal 0 0 1
    outer loop
      vertex 3.61804 48.0979 28.075
      vertex 3 48 28.075
      vertex 3.31288 48.0246 28.075
    endloop
  endfacet
  facet normal 0 0 1
    outer loop
      vertex -3.7 53 28.075
      vertex 3 56 28.075
      vertex -3 56 28.075
    endloop
  endfacet
  facet normal 0 0 1
    outer loop
      vertex -3.77341 52.5365 28.075
      vertex 3.77341 52.5365 28.075
      vertex -3.7 53 28.075
    endloop
  endfacet
  facet normal 0 0 1
    outer loop
      vertex -3.98647 53.8817 28.075
      vertex -3 56 28.075
      vertex -3.31287 55.9754 28.075
    endloop
  endfacet
  facet normal 0 0 1
    outer loop
      vertex 3.77341 52.5365 28.075
      vertex -3 48 28.075
      vertex 3 48 28.075
    endloop
  endfacet
  facet normal 0 0 1
    outer loop
      vertex -3.98647 53.8817 28.075
      vertex -3.31287 55.9754 28.075
      vertex -3.61803 55.9021 28.075
    endloop
  endfacet
  facet normal 0 0 1
    outer loop
      vertex 3.77341 52.5365 28.075
      vertex -3.77341 52.5365 28.075
      vertex -3 48 28.075
    endloop
  endfacet
  facet normal 0 0 1
    outer loop
      vertex -3 48 28.075
      vertex -3.61803 48.0979 28.075
      vertex -3.31287 48.0246 28.075
    endloop
  endfacet
  facet normal 0 0 1
    outer loop
      vertex -3 56 28.075
      vertex -3.77341 53.4635 28.075
      vertex -3.7 53 28.075
    endloop
  endfacet
  facet normal 0 0 1
    outer loop
      vertex -3.98647 53.8817 28.075
      vertex -3.61803 55.9021 28.075
      vertex -3.90797 55.782 28.075
    endloop
  endfacet
  facet normal 0 0 1
    outer loop
      vertex -3.98647 53.8817 28.075
      vertex -3.90797 55.782 28.075
      vertex -3.98589 55.7343 28.075
    endloop
  endfacet
  facet normal 0 0 1
    outer loop
      vertex -3 56 28.075
      vertex -3.98647 53.8817 28.075
      vertex -3.77341 53.4635 28.075
    endloop
  endfacet
  facet normal 0 0 1
    outer loop
      vertex -4.73647 54.4266 28.075
      vertex -3.98589 55.7343 28.075
      vertex -4.27295 55.8532 28.075
    endloop
  endfacet
  facet normal 0 0 1
    outer loop
      vertex -3.98589 55.7343 28.075
      vertex -4.31832 54.2135 28.075
      vertex -3.98647 53.8817 28.075
    endloop
  endfacet
  facet normal 0 0 1
    outer loop
      vertex -4.73647 54.4266 28.075
      vertex -4.27295 55.8532 28.075
      vertex -4.7307 55.9631 28.075
    endloop
  endfacet
  facet normal 0 0 1
    outer loop
      vertex -3.98589 55.7343 28.075
      vertex -4.73647 54.4266 28.075
      vertex -4.31832 54.2135 28.075
    endloop
  endfacet
  facet normal 0 0 1
    outer loop
      vertex -5.2 54.5 28.075
      vertex -4.7307 55.9631 28.075
      vertex -5.2 56 28.075
    endloop
  endfacet
  facet normal 0 0 1
    outer loop
      vertex -4.7307 55.9631 28.075
      vertex -5.2 54.5 28.075
      vertex -4.73647 54.4266 28.075
    endloop
  endfacet
  facet normal -0 0 1
    outer loop
      vertex -5.6693 55.9631 28.075
      vertex -5.2 54.5 28.075
      vertex -5.2 56 28.075
    endloop
  endfacet
  facet normal 0 0 1
    outer loop
      vertex -5.2 54.5 28.075
      vertex -5.6693 55.9631 28.075
      vertex -5.66352 54.4266 28.075
    endloop
  endfacet
  facet normal -0 0 1
    outer loop
      vertex -6.12705 55.8532 28.075
      vertex -5.66352 54.4266 28.075
      vertex -5.6693 55.9631 28.075
    endloop
  endfacet
  facet normal -0 0 1
    outer loop
      vertex -6.56197 55.673 28.075
      vertex -5.66352 54.4266 28.075
      vertex -6.12705 55.8532 28.075
    endloop
  endfacet
  facet normal 0 0 1
    outer loop
      vertex -5.66352 54.4266 28.075
      vertex -6.56197 55.673 28.075
      vertex -6.08168 54.2135 28.075
    endloop
  endfacet
  facet normal -0 0 1
    outer loop
      vertex -6.96336 55.4271 28.075
      vertex -6.08168 54.2135 28.075
      vertex -6.56197 55.673 28.075
    endloop
  endfacet
  facet normal -0 0 1
    outer loop
      vertex -7.32132 55.1213 28.075
      vertex -6.08168 54.2135 28.075
      vertex -6.96336 55.4271 28.075
    endloop
  endfacet
  facet normal 0 0 1
    outer loop
      vertex -6.08168 54.2135 28.075
      vertex -7.32132 55.1213 28.075
      vertex -6.41352 53.8817 28.075
    endloop
  endfacet
  facet normal -0 0 1
    outer loop
      vertex -7.62705 54.7634 28.075
      vertex -6.41352 53.8817 28.075
      vertex -7.32132 55.1213 28.075
    endloop
  endfacet
  facet normal 0.972379 0.233409 0
    outer loop
      vertex 8.16306 53.4693 28.075
      vertex 8.05317 53.9271 27.025
      vertex 8.05317 53.9271 28.075
    endloop
  endfacet
  facet normal 0.972379 0.233409 0
    outer loop
      vertex 8.05317 53.9271 27.025
      vertex 8.16306 53.4693 28.075
      vertex 8.16306 53.4693 27.025
    endloop
  endfacet
  facet normal 0.923873 0.382699 0
    outer loop
      vertex 8.05317 53.9271 28.075
      vertex 7.87302 54.362 27.025
      vertex 7.87302 54.362 28.075
    endloop
  endfacet
  facet normal 0.923873 0.382699 0
    outer loop
      vertex 7.87302 54.362 27.025
      vertex 8.05317 53.9271 28.075
      vertex 8.05317 53.9271 27.025
    endloop
  endfacet
  facet normal 0.0783858 -0.996923 0
    outer loop
      vertex 5.2 50 27.025
      vertex 5.6693 50.0369 28.075
      vertex 5.2 50 28.075
    endloop
  endfacet
  facet normal 0.0783858 -0.996923 0
    outer loop
      vertex 5.6693 50.0369 28.075
      vertex 5.2 50 27.025
      vertex 5.6693 50.0369 27.025
    endloop
  endfacet
  facet normal -0.0783858 0.996923 0
    outer loop
      vertex 5.2 56 27.025
      vertex 4.7307 55.9631 28.075
      vertex 5.2 56 28.075
    endloop
  endfacet
  facet normal -0.0783858 0.996923 0
    outer loop
      vertex 4.7307 55.9631 28.075
      vertex 5.2 56 27.025
      vertex 4.7307 55.9631 27.025
    endloop
  endfacet
  facet normal -0.0782592 -0.996933 0
    outer loop
      vertex 5 50.0157 27.025
      vertex 5.2 50 28.075
      vertex 5 50.0157 28.075
    endloop
  endfacet
  facet normal -0.0782592 -0.996933 -0
    outer loop
      vertex 5.2 50 28.075
      vertex 5 50.0157 27.025
      vertex 5.2 50 27.025
    endloop
  endfacet
  facet normal 0.0783858 0.996923 -0
    outer loop
      vertex -4.7307 55.9631 27.025
      vertex -5.2 56 28.075
      vertex -4.7307 55.9631 28.075
    endloop
  endfacet
  facet normal 0.0783858 0.996923 0
    outer loop
      vertex -5.2 56 28.075
      vertex -4.7307 55.9631 27.025
      vertex -5.2 56 27.025
    endloop
  endfacet
  facet normal 0.382672 0.923884 -0
    outer loop
      vertex -3.98589 55.7343 27.025
      vertex -4.27295 55.8532 28.075
      vertex -3.98589 55.7343 28.075
    endloop
  endfacet
  facet normal 0.382672 0.923884 0
    outer loop
      vertex -4.27295 55.8532 28.075
      vertex -3.98589 55.7343 27.025
      vertex -4.27295 55.8532 27.025
    endloop
  endfacet
  facet normal -0.233453 0.972368 0
    outer loop
      vertex -5.6693 55.9631 27.025
      vertex -6.12705 55.8532 28.075
      vertex -5.6693 55.9631 28.075
    endloop
  endfacet
  facet normal -0.233453 0.972368 0
    outer loop
      vertex -6.12705 55.8532 28.075
      vertex -5.6693 55.9631 27.025
      vertex -6.12705 55.8532 27.025
    endloop
  endfacet
  facet normal -0.522387 0.852708 0
    outer loop
      vertex -6.56197 55.673 27.025
      vertex -6.96336 55.4271 28.075
      vertex -6.56197 55.673 28.075
    endloop
  endfacet
  facet normal -0.522387 0.852708 0
    outer loop
      vertex -6.96336 55.4271 28.075
      vertex -6.56197 55.673 27.025
      vertex -6.96336 55.4271 27.025
    endloop
  endfacet
  facet normal -0.0783858 0.996923 0
    outer loop
      vertex -5.2 56 27.025
      vertex -5.6693 55.9631 28.075
      vertex -5.2 56 28.075
    endloop
  endfacet
  facet normal -0.0783858 0.996923 0
    outer loop
      vertex -5.6693 55.9631 28.075
      vertex -5.2 56 27.025
      vertex -5.6693 55.9631 27.025
    endloop
  endfacet
  facet normal -0.522387 -0.852708 0
    outer loop
      vertex -6.96336 50.5729 27.025
      vertex -6.56197 50.327 28.075
      vertex -6.96336 50.5729 28.075
    endloop
  endfacet
  facet normal -0.522387 -0.852708 -0
    outer loop
      vertex -6.56197 50.327 28.075
      vertex -6.96336 50.5729 27.025
      vertex -6.56197 50.327 27.025
    endloop
  endfacet
  facet normal -0.0783858 -0.996923 0
    outer loop
      vertex -5.6693 50.0369 27.025
      vertex -5.2 50 28.075
      vertex -5.6693 50.0369 28.075
    endloop
  endfacet
  facet normal -0.0783858 -0.996923 -0
    outer loop
      vertex -5.2 50 28.075
      vertex -5.6693 50.0369 27.025
      vertex -5.2 50 27.025
    endloop
  endfacet
  facet normal -0.852648 -0.522486 0
    outer loop
      vertex -7.62705 51.2366 27.025
      vertex -7.87302 51.638 28.075
      vertex -7.87302 51.638 27.025
    endloop
  endfacet
  facet normal -0.852648 -0.522486 0
    outer loop
      vertex -7.87302 51.638 28.075
      vertex -7.62705 51.2366 27.025
      vertex -7.62705 51.2366 28.075
    endloop
  endfacet
  facet normal -0.972379 0.233409 0
    outer loop
      vertex -8.16306 53.4693 27.025
      vertex -8.05317 53.9271 28.075
      vertex -8.05317 53.9271 27.025
    endloop
  endfacet
  facet normal -0.972379 0.233409 0
    outer loop
      vertex -8.05317 53.9271 28.075
      vertex -8.16306 53.4693 27.025
      vertex -8.16306 53.4693 28.075
    endloop
  endfacet
  facet normal -0.382775 -0.923842 0
    outer loop
      vertex -6.56197 50.327 27.025
      vertex -6.12705 50.1468 28.075
      vertex -6.56197 50.327 28.075
    endloop
  endfacet
  facet normal -0.382775 -0.923842 -0
    outer loop
      vertex -6.12705 50.1468 28.075
      vertex -6.56197 50.327 27.025
      vertex -6.12705 50.1468 27.025
    endloop
  endfacet
  facet normal -0.923873 0.382699 0
    outer loop
      vertex -8.05317 53.9271 27.025
      vertex -7.87302 54.362 28.075
      vertex -7.87302 54.362 27.025
    endloop
  endfacet
  facet normal -0.923873 0.382699 0
    outer loop
      vertex -7.87302 54.362 28.075
      vertex -8.05317 53.9271 27.025
      vertex -8.05317 53.9271 28.075
    endloop
  endfacet
  facet normal -0.923873 -0.382699 0
    outer loop
      vertex -7.87302 51.638 27.025
      vertex -8.05317 52.0729 28.075
      vertex -8.05317 52.0729 27.025
    endloop
  endfacet
  facet normal -0.923873 -0.382699 0
    outer loop
      vertex -8.05317 52.0729 28.075
      vertex -7.87302 51.638 27.025
      vertex -7.87302 51.638 28.075
    endloop
  endfacet
  facet normal 0.233453 0.972368 -0
    outer loop
      vertex -4.27295 55.8532 27.025
      vertex -4.7307 55.9631 28.075
      vertex -4.27295 55.8532 28.075
    endloop
  endfacet
  facet normal 0.233453 0.972368 0
    outer loop
      vertex -4.7307 55.9631 28.075
      vertex -4.27295 55.8532 27.025
      vertex -4.7307 55.9631 27.025
    endloop
  endfacet
  facet normal -0.996916 0.0784703 0
    outer loop
      vertex -8.2 53 27.025
      vertex -8.16306 53.4693 28.075
      vertex -8.16306 53.4693 27.025
    endloop
  endfacet
  facet normal -0.996916 0.0784703 0
    outer loop
      vertex -8.16306 53.4693 28.075
      vertex -8.2 53 27.025
      vertex -8.2 53 28.075
    endloop
  endfacet
  facet normal -0.649538 -0.760329 0
    outer loop
      vertex -7.32132 50.8787 27.025
      vertex -6.96336 50.5729 28.075
      vertex -7.32132 50.8787 28.075
    endloop
  endfacet
  facet normal -0.649538 -0.760329 -0
    outer loop
      vertex -6.96336 50.5729 28.075
      vertex -7.32132 50.8787 27.025
      vertex -6.96336 50.5729 27.025
    endloop
  endfacet
  facet normal -0.760349 -0.649515 0
    outer loop
      vertex -7.32132 50.8787 27.025
      vertex -7.62705 51.2366 28.075
      vertex -7.62705 51.2366 27.025
    endloop
  endfacet
  facet normal -0.760349 -0.649515 0
    outer loop
      vertex -7.62705 51.2366 28.075
      vertex -7.32132 50.8787 27.025
      vertex -7.32132 50.8787 28.075
    endloop
  endfacet
  facet normal -0.382775 0.923842 0
    outer loop
      vertex -6.12705 55.8532 27.025
      vertex -6.56197 55.673 28.075
      vertex -6.12705 55.8532 28.075
    endloop
  endfacet
  facet normal -0.382775 0.923842 0
    outer loop
      vertex -6.56197 55.673 28.075
      vertex -6.12705 55.8532 27.025
      vertex -6.56197 55.673 27.025
    endloop
  endfacet
  facet normal -0.852648 0.522486 0
    outer loop
      vertex -7.87302 54.362 27.025
      vertex -7.62705 54.7634 28.075
      vertex -7.62705 54.7634 27.025
    endloop
  endfacet
  facet normal -0.852648 0.522486 0
    outer loop
      vertex -7.62705 54.7634 28.075
      vertex -7.87302 54.362 27.025
      vertex -7.87302 54.362 28.075
    endloop
  endfacet
  facet normal -0.233453 -0.972368 0
    outer loop
      vertex -6.12705 50.1468 27.025
      vertex -5.6693 50.0369 28.075
      vertex -6.12705 50.1468 28.075
    endloop
  endfacet
  facet normal -0.233453 -0.972368 -0
    outer loop
      vertex -5.6693 50.0369 28.075
      vertex -6.12705 50.1468 27.025
      vertex -5.6693 50.0369 27.025
    endloop
  endfacet
  facet normal -0.996916 -0.0784703 0
    outer loop
      vertex -8.16306 52.5307 27.025
      vertex -8.2 53 28.075
      vertex -8.2 53 27.025
    endloop
  endfacet
  facet normal -0.996916 -0.0784703 0
    outer loop
      vertex -8.2 53 28.075
      vertex -8.16306 52.5307 27.025
      vertex -8.16306 52.5307 28.075
    endloop
  endfacet
  facet normal -0.649538 0.760329 0
    outer loop
      vertex -6.96336 55.4271 27.025
      vertex -7.32132 55.1213 28.075
      vertex -6.96336 55.4271 28.075
    endloop
  endfacet
  facet normal -0.649538 0.760329 0
    outer loop
      vertex -7.32132 55.1213 28.075
      vertex -6.96336 55.4271 27.025
      vertex -7.32132 55.1213 27.025
    endloop
  endfacet
  facet normal 0.0782592 -0.996933 0
    outer loop
      vertex -5.2 50 27.025
      vertex -5 50.0157 28.075
      vertex -5.2 50 28.075
    endloop
  endfacet
  facet normal 0.0782592 -0.996933 0
    outer loop
      vertex -5 50.0157 28.075
      vertex -5.2 50 27.025
      vertex -5 50.0157 27.025
    endloop
  endfacet
  facet normal -0.972379 -0.233409 0
    outer loop
      vertex -8.05317 52.0729 27.025
      vertex -8.16306 52.5307 28.075
      vertex -8.16306 52.5307 27.025
    endloop
  endfacet
  facet normal -0.972379 -0.233409 0
    outer loop
      vertex -8.16306 52.5307 28.075
      vertex -8.05317 52.0729 27.025
      vertex -8.05317 52.0729 28.075
    endloop
  endfacet
  facet normal -0.760349 0.649515 0
    outer loop
      vertex -7.62705 54.7634 27.025
      vertex -7.32132 55.1213 28.075
      vertex -7.32132 55.1213 27.025
    endloop
  endfacet
  facet normal -0.760349 0.649515 0
    outer loop
      vertex -7.32132 55.1213 28.075
      vertex -7.62705 54.7634 27.025
      vertex -7.62705 54.7634 28.075
    endloop
  endfacet
  facet normal -0.233559 -0.972343 0
    outer loop
      vertex -3.61803 48.0979 27.025
      vertex -3.31287 48.0246 28.075
      vertex -3.61803 48.0979 28.075
    endloop
  endfacet
  facet normal -0.233559 -0.972343 -0
    outer loop
      vertex -3.31287 48.0246 28.075
      vertex -3.61803 48.0979 27.025
      vertex -3.31287 48.0246 27.025
    endloop
  endfacet
  facet normal 0.972347 -0.233542 0
    outer loop
      vertex 4.90211 49.382 28.075
      vertex 4.97539 49.6871 27.025
      vertex 4.97539 49.6871 28.075
    endloop
  endfacet
  facet normal 0.972347 -0.233542 0
    outer loop
      vertex 4.97539 49.6871 27.025
      vertex 4.90211 49.382 28.075
      vertex 4.90211 49.382 27.025
    endloop
  endfacet
  facet normal 0 -1 0
    outer loop
      vertex -3 48 27.025
      vertex 3 48 28.075
      vertex -3 48 28.075
    endloop
  endfacet
  facet normal 0 -1 -0
    outer loop
      vertex 3 48 28.075
      vertex -3 48 27.025
      vertex 3 48 27.025
    endloop
  endfacet
  facet normal 0.852634 -0.522509 0
    outer loop
      vertex 4.61804 48.8244 28.075
      vertex 4.78203 49.092 27.025
      vertex 4.78203 49.092 28.075
    endloop
  endfacet
  facet normal 0.852634 -0.522509 0
    outer loop
      vertex 4.78203 49.092 27.025
      vertex 4.61804 48.8244 28.075
      vertex 4.61804 48.8244 27.025
    endloop
  endfacet
  facet normal -0.760333 -0.649533 0
    outer loop
      vertex -4.4142 48.5858 27.025
      vertex -4.61803 48.8244 28.075
      vertex -4.61803 48.8244 27.025
    endloop
  endfacet
  facet normal -0.760333 -0.649533 0
    outer loop
      vertex -4.61803 48.8244 28.075
      vertex -4.4142 48.5858 27.025
      vertex -4.4142 48.5858 28.075
    endloop
  endfacet
  facet normal -0.522105 0.852881 0
    outer loop
      vertex -3.90797 55.782 27.025
      vertex -3.98589 55.7343 28.075
      vertex -3.90797 55.782 28.075
    endloop
  endfacet
  facet normal -0.522105 0.852881 0
    outer loop
      vertex -3.98589 55.7343 28.075
      vertex -3.90797 55.782 27.025
      vertex -3.98589 55.7343 27.025
    endloop
  endfacet
  facet normal -0.996916 -0.0784725 0
    outer loop
      vertex -4.97537 49.6871 27.025
      vertex -5 50 28.075
      vertex -5 50 27.025
    endloop
  endfacet
  facet normal -0.996916 -0.0784725 0
    outer loop
      vertex -5 50 28.075
      vertex -4.97537 49.6871 27.025
      vertex -4.97537 49.6871 28.075
    endloop
  endfacet
  facet normal -0.972354 -0.233512 0
    outer loop
      vertex -4.9021 49.382 27.025
      vertex -4.97537 49.6871 28.075
      vertex -4.97537 49.6871 27.025
    endloop
  endfacet
  facet normal -0.972354 -0.233512 0
    outer loop
      vertex -4.97537 49.6871 28.075
      vertex -4.9021 49.382 27.025
      vertex -4.9021 49.382 28.075
    endloop
  endfacet
  facet normal 0.0783825 0.996923 -0
    outer loop
      vertex 3.31288 55.9754 27.025
      vertex 3 56 28.075
      vertex 3.31288 55.9754 28.075
    endloop
  endfacet
  facet normal 0.0783825 0.996923 0
    outer loop
      vertex 3 56 28.075
      vertex 3.31288 55.9754 27.025
      vertex 3 56 27.025
    endloop
  endfacet
  facet normal 0.996921 -0.0784092 0
    outer loop
      vertex 4.97539 49.6871 28.075
      vertex 5 50 27.025
      vertex 5 50 28.075
    endloop
  endfacet
  facet normal 0.996921 -0.0784092 0
    outer loop
      vertex 5 50 27.025
      vertex 4.97539 49.6871 28.075
      vertex 4.97539 49.6871 27.025
    endloop
  endfacet
  facet normal -1 0 0
    outer loop
      vertex -5 50 27.025
      vertex -5 50.0157 28.075
      vertex -5 50.0157 27.025
    endloop
  endfacet
  facet normal -1 -0 0
    outer loop
      vertex -5 50.0157 28.075
      vertex -5 50 27.025
      vertex -5 50 28.075
    endloop
  endfacet
  facet normal 0.0783825 -0.996923 0
    outer loop
      vertex 3 48 27.025
      vertex 3.31288 48.0246 28.075
      vertex 3 48 28.075
    endloop
  endfacet
  facet normal 0.0783825 -0.996923 0
    outer loop
      vertex 3.31288 48.0246 28.075
      vertex 3 48 27.025
      vertex 3.31288 48.0246 27.025
    endloop
  endfacet
  facet normal 0 1 -0
    outer loop
      vertex 3 56 27.025
      vertex -3 56 28.075
      vertex 3 56 28.075
    endloop
  endfacet
  facet normal 0 1 0
    outer loop
      vertex -3 56 28.075
      vertex 3 56 27.025
      vertex -3 56 27.025
    endloop
  endfacet
  facet normal 0.649415 -0.760434 0
    outer loop
      vertex 4.17558 48.382 27.025
      vertex 4.41422 48.5858 28.075
      vertex 4.17558 48.382 28.075
    endloop
  endfacet
  facet normal 0.649415 -0.760434 0
    outer loop
      vertex 4.41422 48.5858 28.075
      vertex 4.17558 48.382 27.025
      vertex 4.41422 48.5858 27.025
    endloop
  endfacet
  facet normal -0.649431 -0.760421 0
    outer loop
      vertex -4.4142 48.5858 27.025
      vertex -4.17557 48.382 28.075
      vertex -4.4142 48.5858 28.075
    endloop
  endfacet
  facet normal -0.649431 -0.760421 -0
    outer loop
      vertex -4.17557 48.382 28.075
      vertex -4.4142 48.5858 27.025
      vertex -4.17557 48.382 27.025
    endloop
  endfacet
  facet normal 1 -0 0
    outer loop
      vertex 5 50 28.075
      vertex 5 50.0157 27.025
      vertex 5 50.0157 28.075
    endloop
  endfacet
  facet normal 1 0 0
    outer loop
      vertex 5 50.0157 27.025
      vertex 5 50 28.075
      vertex 5 50 27.025
    endloop
  endfacet
  facet normal 0.233559 -0.972343 0
    outer loop
      vertex 3.31288 48.0246 27.025
      vertex 3.61804 48.0979 28.075
      vertex 3.31288 48.0246 28.075
    endloop
  endfacet
  facet normal 0.233559 -0.972343 0
    outer loop
      vertex 3.61804 48.0979 28.075
      vertex 3.31288 48.0246 27.025
      vertex 3.61804 48.0979 27.025
    endloop
  endfacet
  facet normal 0.38268 -0.923881 0
    outer loop
      vertex 3.61804 48.0979 27.025
      vertex 3.90799 48.218 28.075
      vertex 3.61804 48.0979 28.075
    endloop
  endfacet
  facet normal 0.38268 -0.923881 0
    outer loop
      vertex 3.90799 48.218 28.075
      vertex 3.61804 48.0979 27.025
      vertex 3.90799 48.218 27.025
    endloop
  endfacet
  facet normal 0.522546 -0.852611 0
    outer loop
      vertex 3.90799 48.218 27.025
      vertex 4.17558 48.382 28.075
      vertex 3.90799 48.218 28.075
    endloop
  endfacet
  facet normal 0.522546 -0.852611 0
    outer loop
      vertex 4.17558 48.382 28.075
      vertex 3.90799 48.218 27.025
      vertex 4.17558 48.382 27.025
    endloop
  endfacet
  facet normal -0.078385 0.996923 0
    outer loop
      vertex -3 56 27.025
      vertex -3.31287 55.9754 28.075
      vertex -3 56 28.075
    endloop
  endfacet
  facet normal -0.078385 0.996923 0
    outer loop
      vertex -3.31287 55.9754 28.075
      vertex -3 56 27.025
      vertex -3.31287 55.9754 27.025
    endloop
  endfacet
  facet normal 0.923927 -0.382569 0
    outer loop
      vertex 4.78203 49.092 28.075
      vertex 4.90211 49.382 27.025
      vertex 4.90211 49.382 28.075
    endloop
  endfacet
  facet normal 0.923927 -0.382569 0
    outer loop
      vertex 4.90211 49.382 27.025
      vertex 4.78203 49.092 28.075
      vertex 4.78203 49.092 27.025
    endloop
  endfacet
  facet normal 0.760349 -0.649515 0
    outer loop
      vertex 4.41422 48.5858 28.075
      vertex 4.61804 48.8244 27.025
      vertex 4.61804 48.8244 28.075
    endloop
  endfacet
  facet normal 0.760349 -0.649515 0
    outer loop
      vertex 4.61804 48.8244 27.025
      vertex 4.41422 48.5858 28.075
      vertex 4.41422 48.5858 27.025
    endloop
  endfacet
  facet normal -0.078385 -0.996923 0
    outer loop
      vertex -3.31287 48.0246 27.025
      vertex -3 48 28.075
      vertex -3.31287 48.0246 28.075
    endloop
  endfacet
  facet normal -0.078385 -0.996923 -0
    outer loop
      vertex -3 48 28.075
      vertex -3.31287 48.0246 27.025
      vertex -3 48 27.025
    endloop
  endfacet
  facet normal -0.923915 -0.382597 0
    outer loop
      vertex -4.78201 49.092 27.025
      vertex -4.9021 49.382 28.075
      vertex -4.9021 49.382 27.025
    endloop
  endfacet
  facet normal -0.923915 -0.382597 0
    outer loop
      vertex -4.9021 49.382 28.075
      vertex -4.78201 49.092 27.025
      vertex -4.78201 49.092 28.075
    endloop
  endfacet
  facet normal -0.382691 -0.923876 0
    outer loop
      vertex -3.90797 48.218 27.025
      vertex -3.61803 48.0979 28.075
      vertex -3.90797 48.218 28.075
    endloop
  endfacet
  facet normal -0.382691 -0.923876 -0
    outer loop
      vertex -3.61803 48.0979 28.075
      vertex -3.90797 48.218 27.025
      vertex -3.61803 48.0979 27.025
    endloop
  endfacet
  facet normal 0.233559 0.972343 -0
    outer loop
      vertex 3.61804 55.9021 27.025
      vertex 3.31288 55.9754 28.075
      vertex 3.61804 55.9021 28.075
    endloop
  endfacet
  facet normal 0.233559 0.972343 0
    outer loop
      vertex 3.31288 55.9754 28.075
      vertex 3.61804 55.9021 27.025
      vertex 3.31288 55.9754 27.025
    endloop
  endfacet
  facet normal -0.382691 0.923876 0
    outer loop
      vertex -3.61803 55.9021 27.025
      vertex -3.90797 55.782 28.075
      vertex -3.61803 55.9021 28.075
    endloop
  endfacet
  facet normal -0.382691 0.923876 0
    outer loop
      vertex -3.90797 55.782 28.075
      vertex -3.61803 55.9021 27.025
      vertex -3.90797 55.782 27.025
    endloop
  endfacet
  facet normal -0.852648 -0.522486 0
    outer loop
      vertex -4.61803 48.8244 27.025
      vertex -4.78201 49.092 28.075
      vertex -4.78201 49.092 27.025
    endloop
  endfacet
  facet normal -0.852648 -0.522486 0
    outer loop
      vertex -4.78201 49.092 28.075
      vertex -4.61803 48.8244 27.025
      vertex -4.61803 48.8244 28.075
    endloop
  endfacet
  facet normal 0.522154 0.852851 -0
    outer loop
      vertex 3.9859 55.7343 27.025
      vertex 3.90799 55.782 28.075
      vertex 3.9859 55.7343 28.075
    endloop
  endfacet
  facet normal 0.522154 0.852851 0
    outer loop
      vertex 3.90799 55.782 28.075
      vertex 3.9859 55.7343 27.025
      vertex 3.90799 55.782 27.025
    endloop
  endfacet
  facet normal -0.522532 -0.85262 0
    outer loop
      vertex -4.17557 48.382 27.025
      vertex -3.90797 48.218 28.075
      vertex -4.17557 48.382 28.075
    endloop
  endfacet
  facet normal -0.522532 -0.85262 -0
    outer loop
      vertex -3.90797 48.218 28.075
      vertex -4.17557 48.382 27.025
      vertex -3.90797 48.218 27.025
    endloop
  endfacet
  facet normal -0.233559 0.972343 0
    outer loop
      vertex -3.31287 55.9754 27.025
      vertex -3.61803 55.9021 28.075
      vertex -3.31287 55.9754 28.075
    endloop
  endfacet
  facet normal -0.233559 0.972343 0
    outer loop
      vertex -3.61803 55.9021 28.075
      vertex -3.31287 55.9754 27.025
      vertex -3.61803 55.9021 27.025
    endloop
  endfacet
  facet normal 0.38268 0.923881 -0
    outer loop
      vertex 3.90799 55.782 27.025
      vertex 3.61804 55.9021 28.075
      vertex 3.90799 55.782 28.075
    endloop
  endfacet
  facet normal 0.38268 0.923881 0
    outer loop
      vertex 3.61804 55.9021 28.075
      vertex 3.90799 55.782 27.025
      vertex 3.61804 55.9021 27.025
    endloop
  endfacet
  facet normal -0.891027 -0.453951 0
    outer loop
      vertex 6.62658 53.4635 27.025
      vertex 6.41352 53.8817 28.075
      vertex 6.41352 53.8817 27.025
    endloop
  endfacet
  facet normal -0.891027 -0.453951 0
    outer loop
      vertex 6.41352 53.8817 28.075
      vertex 6.62658 53.4635 27.025
      vertex 6.62658 53.4635 28.075
    endloop
  endfacet
  facet normal -0.987685 0.156453 0
    outer loop
      vertex 6.62658 52.5365 27.025
      vertex 6.7 53 28.075
      vertex 6.7 53 27.025
    endloop
  endfacet
  facet normal -0.987685 0.156453 0
    outer loop
      vertex 6.7 53 28.075
      vertex 6.62658 52.5365 27.025
      vertex 6.62658 52.5365 28.075
    endloop
  endfacet
  facet normal -0.156405 -0.987693 0
    outer loop
      vertex 5.2 54.5 27.025
      vertex 5.66352 54.4266 28.075
      vertex 5.2 54.5 28.075
    endloop
  endfacet
  facet normal -0.156405 -0.987693 -0
    outer loop
      vertex 5.66352 54.4266 28.075
      vertex 5.2 54.5 27.025
      vertex 5.66352 54.4266 27.025
    endloop
  endfacet
  facet normal 0.987689 -0.156432 0
    outer loop
      vertex 3.7 53 28.075
      vertex 3.77341 53.4635 27.025
      vertex 3.77341 53.4635 28.075
    endloop
  endfacet
  facet normal 0.987689 -0.156432 0
    outer loop
      vertex 3.77341 53.4635 27.025
      vertex 3.7 53 28.075
      vertex 3.7 53 27.025
    endloop
  endfacet
  facet normal -0.707064 -0.707149 0
    outer loop
      vertex 6.41352 53.8817 27.025
      vertex 6.08168 54.2135 28.075
      vertex 6.08168 54.2135 27.025
    endloop
  endfacet
  facet normal -0.707064 -0.707149 0
    outer loop
      vertex 6.08168 54.2135 28.075
      vertex 6.41352 53.8817 27.025
      vertex 6.41352 53.8817 28.075
    endloop
  endfacet
  facet normal 0.987689 0.156432 0
    outer loop
      vertex 3.77341 52.5365 28.075
      vertex 3.7 53 27.025
      vertex 3.7 53 28.075
    endloop
  endfacet
  facet normal 0.987689 0.156432 0
    outer loop
      vertex 3.7 53 27.025
      vertex 3.77341 52.5365 28.075
      vertex 3.77341 52.5365 27.025
    endloop
  endfacet
  facet normal 0.891027 0.453951 0
    outer loop
      vertex 3.98647 52.1183 28.075
      vertex 3.77341 52.5365 27.025
      vertex 3.77341 52.5365 28.075
    endloop
  endfacet
  facet normal 0.891027 0.453951 0
    outer loop
      vertex 3.77341 52.5365 27.025
      vertex 3.98647 52.1183 28.075
      vertex 3.98647 52.1183 27.025
    endloop
  endfacet
  facet normal -0.454053 -0.890975 0
    outer loop
      vertex 5.66352 54.4266 27.025
      vertex 6.08168 54.2135 28.075
      vertex 5.66352 54.4266 28.075
    endloop
  endfacet
  facet normal -0.454053 -0.890975 -0
    outer loop
      vertex 6.08168 54.2135 28.075
      vertex 5.66352 54.4266 27.025
      vertex 6.08168 54.2135 27.025
    endloop
  endfacet
  facet normal 0.891027 -0.453951 0
    outer loop
      vertex 3.77341 53.4635 28.075
      vertex 3.98647 53.8817 27.025
      vertex 3.98647 53.8817 28.075
    endloop
  endfacet
  facet normal 0.891027 -0.453951 0
    outer loop
      vertex 3.98647 53.8817 27.025
      vertex 3.77341 53.4635 28.075
      vertex 3.77341 53.4635 27.025
    endloop
  endfacet
  facet normal 0.156401 -0.987694 0
    outer loop
      vertex 4.73647 54.4266 27.025
      vertex 5.2 54.5 28.075
      vertex 4.73647 54.4266 28.075
    endloop
  endfacet
  facet normal 0.156401 -0.987694 0
    outer loop
      vertex 5.2 54.5 28.075
      vertex 4.73647 54.4266 27.025
      vertex 5.2 54.5 27.025
    endloop
  endfacet
  facet normal 0.707054 -0.70716 0
    outer loop
      vertex 3.98647 53.8817 28.075
      vertex 4.31832 54.2135 27.025
      vertex 4.31832 54.2135 28.075
    endloop
  endfacet
  facet normal 0.707054 -0.70716 0
    outer loop
      vertex 4.31832 54.2135 27.025
      vertex 3.98647 53.8817 28.075
      vertex 3.98647 53.8817 27.025
    endloop
  endfacet
  facet normal 0.454061 0.89097 -0
    outer loop
      vertex 4.73647 51.5734 27.025
      vertex 4.31832 51.7865 28.075
      vertex 4.73647 51.5734 28.075
    endloop
  endfacet
  facet normal 0.454061 0.89097 0
    outer loop
      vertex 4.31832 51.7865 28.075
      vertex 4.73647 51.5734 27.025
      vertex 4.31832 51.7865 27.025
    endloop
  endfacet
  facet normal -0.891027 0.453951 0
    outer loop
      vertex 6.41352 52.1183 27.025
      vertex 6.62658 52.5365 28.075
      vertex 6.62658 52.5365 27.025
    endloop
  endfacet
  facet normal -0.891027 0.453951 0
    outer loop
      vertex 6.62658 52.5365 28.075
      vertex 6.41352 52.1183 27.025
      vertex 6.41352 52.1183 28.075
    endloop
  endfacet
  facet normal -0.156405 0.987693 0
    outer loop
      vertex 5.66352 51.5734 27.025
      vertex 5.2 51.5 28.075
      vertex 5.66352 51.5734 28.075
    endloop
  endfacet
  facet normal -0.156405 0.987693 0
    outer loop
      vertex 5.2 51.5 28.075
      vertex 5.66352 51.5734 27.025
      vertex 5.2 51.5 27.025
    endloop
  endfacet
  facet normal -0.707064 0.707149 0
    outer loop
      vertex 6.41352 52.1183 27.025
      vertex 6.08168 51.7865 28.075
      vertex 6.41352 52.1183 28.075
    endloop
  endfacet
  facet normal -0.707064 0.707149 0
    outer loop
      vertex 6.08168 51.7865 28.075
      vertex 6.41352 52.1183 27.025
      vertex 6.08168 51.7865 27.025
    endloop
  endfacet
  facet normal 0.454061 -0.89097 0
    outer loop
      vertex 4.31832 54.2135 27.025
      vertex 4.73647 54.4266 28.075
      vertex 4.31832 54.2135 28.075
    endloop
  endfacet
  facet normal 0.454061 -0.89097 0
    outer loop
      vertex 4.73647 54.4266 28.075
      vertex 4.31832 54.2135 27.025
      vertex 4.73647 54.4266 27.025
    endloop
  endfacet
  facet normal 0.156401 0.987694 -0
    outer loop
      vertex 5.2 51.5 27.025
      vertex 4.73647 51.5734 28.075
      vertex 5.2 51.5 28.075
    endloop
  endfacet
  facet normal 0.156401 0.987694 0
    outer loop
      vertex 4.73647 51.5734 28.075
      vertex 5.2 51.5 27.025
      vertex 4.73647 51.5734 27.025
    endloop
  endfacet
  facet normal 0.707054 0.70716 -0
    outer loop
      vertex 4.31832 51.7865 27.025
      vertex 3.98647 52.1183 28.075
      vertex 4.31832 51.7865 28.075
    endloop
  endfacet
  facet normal 0.707054 0.70716 0
    outer loop
      vertex 3.98647 52.1183 28.075
      vertex 4.31832 51.7865 27.025
      vertex 3.98647 52.1183 27.025
    endloop
  endfacet
  facet normal -0.454053 0.890975 0
    outer loop
      vertex 6.08168 51.7865 27.025
      vertex 5.66352 51.5734 28.075
      vertex 6.08168 51.7865 28.075
    endloop
  endfacet
  facet normal -0.454053 0.890975 0
    outer loop
      vertex 5.66352 51.5734 28.075
      vertex 6.08168 51.7865 27.025
      vertex 5.66352 51.5734 27.025
    endloop
  endfacet
  facet normal -0.987685 -0.156453 0
    outer loop
      vertex 6.7 53 27.025
      vertex 6.62658 53.4635 28.075
      vertex 6.62658 53.4635 27.025
    endloop
  endfacet
  facet normal -0.987685 -0.156453 0
    outer loop
      vertex 6.62658 53.4635 28.075
      vertex 6.7 53 27.025
      vertex 6.7 53 28.075
    endloop
  endfacet
  facet normal 0.987685 0.156453 0
    outer loop
      vertex -6.62658 52.5365 28.075
      vertex -6.7 53 27.025
      vertex -6.7 53 28.075
    endloop
  endfacet
  facet normal 0.987685 0.156453 0
    outer loop
      vertex -6.7 53 27.025
      vertex -6.62658 52.5365 28.075
      vertex -6.62658 52.5365 27.025
    endloop
  endfacet
  facet normal -0.707054 -0.70716 0
    outer loop
      vertex -3.98647 53.8817 27.025
      vertex -4.31832 54.2135 28.075
      vertex -4.31832 54.2135 27.025
    endloop
  endfacet
  facet normal -0.707054 -0.70716 0
    outer loop
      vertex -4.31832 54.2135 28.075
      vertex -3.98647 53.8817 27.025
      vertex -3.98647 53.8817 28.075
    endloop
  endfacet
  facet normal -0.891027 0.453951 0
    outer loop
      vertex -3.98647 52.1183 27.025
      vertex -3.77341 52.5365 28.075
      vertex -3.77341 52.5365 27.025
    endloop
  endfacet
  facet normal -0.891027 0.453951 0
    outer loop
      vertex -3.77341 52.5365 28.075
      vertex -3.98647 52.1183 27.025
      vertex -3.98647 52.1183 28.075
    endloop
  endfacet
  facet normal -0.156401 -0.987694 0
    outer loop
      vertex -5.2 54.5 27.025
      vertex -4.73647 54.4266 28.075
      vertex -5.2 54.5 28.075
    endloop
  endfacet
  facet normal -0.156401 -0.987694 -0
    outer loop
      vertex -4.73647 54.4266 28.075
      vertex -5.2 54.5 27.025
      vertex -4.73647 54.4266 27.025
    endloop
  endfacet
  facet normal 0.891027 -0.453951 0
    outer loop
      vertex -6.62658 53.4635 28.075
      vertex -6.41352 53.8817 27.025
      vertex -6.41352 53.8817 28.075
    endloop
  endfacet
  facet normal 0.891027 -0.453951 0
    outer loop
      vertex -6.41352 53.8817 27.025
      vertex -6.62658 53.4635 28.075
      vertex -6.62658 53.4635 27.025
    endloop
  endfacet
  facet normal 0.987685 -0.156453 0
    outer loop
      vertex -6.7 53 28.075
      vertex -6.62658 53.4635 27.025
      vertex -6.62658 53.4635 28.075
    endloop
  endfacet
  facet normal 0.987685 -0.156453 0
    outer loop
      vertex -6.62658 53.4635 27.025
      vertex -6.7 53 28.075
      vertex -6.7 53 27.025
    endloop
  endfacet
  facet normal -0.987689 -0.156432 0
    outer loop
      vertex -3.7 53 27.025
      vertex -3.77341 53.4635 28.075
      vertex -3.77341 53.4635 27.025
    endloop
  endfacet
  facet normal -0.987689 -0.156432 0
    outer loop
      vertex -3.77341 53.4635 28.075
      vertex -3.7 53 27.025
      vertex -3.7 53 28.075
    endloop
  endfacet
  facet normal -0.707054 0.70716 0
    outer loop
      vertex -3.98647 52.1183 27.025
      vertex -4.31832 51.7865 28.075
      vertex -3.98647 52.1183 28.075
    endloop
  endfacet
  facet normal -0.707054 0.70716 0
    outer loop
      vertex -4.31832 51.7865 28.075
      vertex -3.98647 52.1183 27.025
      vertex -4.31832 51.7865 27.025
    endloop
  endfacet
  facet normal -0.454061 -0.89097 0
    outer loop
      vertex -4.73647 54.4266 27.025
      vertex -4.31832 54.2135 28.075
      vertex -4.73647 54.4266 28.075
    endloop
  endfacet
  facet normal -0.454061 -0.89097 -0
    outer loop
      vertex -4.31832 54.2135 28.075
      vertex -4.73647 54.4266 27.025
      vertex -4.31832 54.2135 27.025
    endloop
  endfacet
  facet normal -0.156401 0.987694 0
    outer loop
      vertex -4.73647 51.5734 27.025
      vertex -5.2 51.5 28.075
      vertex -4.73647 51.5734 28.075
    endloop
  endfacet
  facet normal -0.156401 0.987694 0
    outer loop
      vertex -5.2 51.5 28.075
      vertex -4.73647 51.5734 27.025
      vertex -5.2 51.5 27.025
    endloop
  endfacet
  facet normal 0.707064 -0.707149 0
    outer loop
      vertex -6.41352 53.8817 28.075
      vertex -6.08168 54.2135 27.025
      vertex -6.08168 54.2135 28.075
    endloop
  endfacet
  facet normal 0.707064 -0.707149 0
    outer loop
      vertex -6.08168 54.2135 27.025
      vertex -6.41352 53.8817 28.075
      vertex -6.41352 53.8817 27.025
    endloop
  endfacet
  facet normal -0.987689 0.156432 0
    outer loop
      vertex -3.77341 52.5365 27.025
      vertex -3.7 53 28.075
      vertex -3.7 53 27.025
    endloop
  endfacet
  facet normal -0.987689 0.156432 0
    outer loop
      vertex -3.7 53 28.075
      vertex -3.77341 52.5365 27.025
      vertex -3.77341 52.5365 28.075
    endloop
  endfacet
  facet normal -0.891027 -0.453951 0
    outer loop
      vertex -3.77341 53.4635 27.025
      vertex -3.98647 53.8817 28.075
      vertex -3.98647 53.8817 27.025
    endloop
  endfacet
  facet normal -0.891027 -0.453951 0
    outer loop
      vertex -3.98647 53.8817 28.075
      vertex -3.77341 53.4635 27.025
      vertex -3.77341 53.4635 28.075
    endloop
  endfacet
  facet normal 0.156405 0.987693 -0
    outer loop
      vertex -5.2 51.5 27.025
      vertex -5.66352 51.5734 28.075
      vertex -5.2 51.5 28.075
    endloop
  endfacet
  facet normal 0.156405 0.987693 0
    outer loop
      vertex -5.66352 51.5734 28.075
      vertex -5.2 51.5 27.025
      vertex -5.66352 51.5734 27.025
    endloop
  endfacet
  facet normal 0.454053 0.890975 -0
    outer loop
      vertex -5.66352 51.5734 27.025
      vertex -6.08168 51.7865 28.075
      vertex -5.66352 51.5734 28.075
    endloop
  endfacet
  facet normal 0.454053 0.890975 0
    outer loop
      vertex -6.08168 51.7865 28.075
      vertex -5.66352 51.5734 27.025
      vertex -6.08168 51.7865 27.025
    endloop
  endfacet
  facet normal 0.707064 0.707149 -0
    outer loop
      vertex -6.08168 51.7865 27.025
      vertex -6.41352 52.1183 28.075
      vertex -6.08168 51.7865 28.075
    endloop
  endfacet
  facet normal 0.707064 0.707149 0
    outer loop
      vertex -6.41352 52.1183 28.075
      vertex -6.08168 51.7865 27.025
      vertex -6.41352 52.1183 27.025
    endloop
  endfacet
  facet normal -0.454061 0.89097 0
    outer loop
      vertex -4.31832 51.7865 27.025
      vertex -4.73647 51.5734 28.075
      vertex -4.31832 51.7865 28.075
    endloop
  endfacet
  facet normal -0.454061 0.89097 0
    outer loop
      vertex -4.73647 51.5734 28.075
      vertex -4.31832 51.7865 27.025
      vertex -4.73647 51.5734 27.025
    endloop
  endfacet
  facet normal 0.454053 -0.890975 0
    outer loop
      vertex -6.08168 54.2135 27.025
      vertex -5.66352 54.4266 28.075
      vertex -6.08168 54.2135 28.075
    endloop
  endfacet
  facet normal 0.454053 -0.890975 0
    outer loop
      vertex -5.66352 54.4266 28.075
      vertex -6.08168 54.2135 27.025
      vertex -5.66352 54.4266 27.025
    endloop
  endfacet
  facet normal 0.891027 0.453951 0
    outer loop
      vertex -6.41352 52.1183 28.075
      vertex -6.62658 52.5365 27.025
      vertex -6.62658 52.5365 28.075
    endloop
  endfacet
  facet normal 0.891027 0.453951 0
    outer loop
      vertex -6.62658 52.5365 27.025
      vertex -6.41352 52.1183 28.075
      vertex -6.41352 52.1183 27.025
    endloop
  endfacet
  facet normal 0.156405 -0.987693 0
    outer loop
      vertex -5.66352 54.4266 27.025
      vertex -5.2 54.5 28.075
      vertex -5.66352 54.4266 28.075
    endloop
  endfacet
  facet normal 0.156405 -0.987693 0
    outer loop
      vertex -5.2 54.5 28.075
      vertex -5.66352 54.4266 27.025
      vertex -5.2 54.5 27.025
    endloop
  endfacet
  facet normal -0 0 -1
    outer loop
      vertex 5 50 27.025
      vertex 4.97539 49.6871 27.025
      vertex 5 50.0157 27.025
    endloop
  endfacet
  facet normal 0 0 -1
    outer loop
      vertex 6.7 53 27.025
      vertex 8.2 53 27.025
      vertex 8.16306 52.5307 27.025
    endloop
  endfacet
  facet normal 0 0 -1
    outer loop
      vertex 6.62658 52.5365 27.025
      vertex 8.16306 52.5307 27.025
      vertex 8.05317 52.0729 27.025
    endloop
  endfacet
  facet normal 0 0 -1
    outer loop
      vertex 8.2 53 27.025
      vertex 6.7 53 27.025
      vertex 8.16306 53.4693 27.025
    endloop
  endfacet
  facet normal 0 0 -1
    outer loop
      vertex 6.62658 52.5365 27.025
      vertex 8.05317 52.0729 27.025
      vertex 7.87302 51.638 27.025
    endloop
  endfacet
  facet normal 0 0 -1
    outer loop
      vertex 6.62658 53.4635 27.025
      vertex 8.16306 53.4693 27.025
      vertex 6.7 53 27.025
    endloop
  endfacet
  facet normal 0 0 -1
    outer loop
      vertex 6.41352 52.1183 27.025
      vertex 7.87302 51.638 27.025
      vertex 7.62705 51.2366 27.025
    endloop
  endfacet
  facet normal -0 0 -1
    outer loop
      vertex 8.16306 53.4693 27.025
      vertex 6.62658 53.4635 27.025
      vertex 8.05317 53.9271 27.025
    endloop
  endfacet
  facet normal 0 0 -1
    outer loop
      vertex 6.41352 52.1183 27.025
      vertex 7.62705 51.2366 27.025
      vertex 7.32132 50.8787 27.025
    endloop
  endfacet
  facet normal -0 0 -1
    outer loop
      vertex 8.05317 53.9271 27.025
      vertex 6.62658 53.4635 27.025
      vertex 7.87302 54.362 27.025
    endloop
  endfacet
  facet normal 0 0 -1
    outer loop
      vertex 6.08168 51.7865 27.025
      vertex 7.32132 50.8787 27.025
      vertex 6.96336 50.5729 27.025
    endloop
  endfacet
  facet normal 0 0 -1
    outer loop
      vertex 6.41352 53.8817 27.025
      vertex 7.87302 54.362 27.025
      vertex 6.62658 53.4635 27.025
    endloop
  endfacet
  facet normal -0 0 -1
    outer loop
      vertex 7.87302 54.362 27.025
      vertex 6.41352 53.8817 27.025
      vertex 7.62705 54.7634 27.025
    endloop
  endfacet
  facet normal 0 0 -1
    outer loop
      vertex 8.16306 52.5307 27.025
      vertex 6.62658 52.5365 27.025
      vertex 6.7 53 27.025
    endloop
  endfacet
  facet normal 0 0 -1
    outer loop
      vertex 6.08168 51.7865 27.025
      vertex 6.96336 50.5729 27.025
      vertex 6.56197 50.327 27.025
    endloop
  endfacet
  facet normal 0 0 -1
    outer loop
      vertex 7.87302 51.638 27.025
      vertex 6.41352 52.1183 27.025
      vertex 6.62658 52.5365 27.025
    endloop
  endfacet
  facet normal 0 0 -1
    outer loop
      vertex 5.66352 51.5734 27.025
      vertex 6.56197 50.327 27.025
      vertex 6.12705 50.1468 27.025
    endloop
  endfacet
  facet normal 0 0 -1
    outer loop
      vertex 7.32132 50.8787 27.025
      vertex 6.08168 51.7865 27.025
      vertex 6.41352 52.1183 27.025
    endloop
  endfacet
  facet normal 0 0 -1
    outer loop
      vertex 5.66352 51.5734 27.025
      vertex 6.12705 50.1468 27.025
      vertex 5.6693 50.0369 27.025
    endloop
  endfacet
  facet normal 0 0 -1
    outer loop
      vertex 6.56197 50.327 27.025
      vertex 5.66352 51.5734 27.025
      vertex 6.08168 51.7865 27.025
    endloop
  endfacet
  facet normal 0 0 -1
    outer loop
      vertex 5.2 51.5 27.025
      vertex 5.6693 50.0369 27.025
      vertex 5.2 50 27.025
    endloop
  endfacet
  facet normal 0 0 -1
    outer loop
      vertex 5.6693 50.0369 27.025
      vertex 5.2 51.5 27.025
      vertex 5.66352 51.5734 27.025
    endloop
  endfacet
  facet normal 0 0 -1
    outer loop
      vertex 5 50.0157 27.025
      vertex 5.2 51.5 27.025
      vertex 5.2 50 27.025
    endloop
  endfacet
  facet normal 0 0 -1
    outer loop
      vertex 4.90211 49.382 27.025
      vertex 5 50.0157 27.025
      vertex 4.97539 49.6871 27.025
    endloop
  endfacet
  facet normal 0 0 -1
    outer loop
      vertex 3 48 27.025
      vertex 5 50.0157 27.025
      vertex 4.90211 49.382 27.025
    endloop
  endfacet
  facet normal 0 0 -1
    outer loop
      vertex 3 48 27.025
      vertex 4.90211 49.382 27.025
      vertex 4.78203 49.092 27.025
    endloop
  endfacet
  facet normal 0 0 -1
    outer loop
      vertex 5 50.0157 27.025
      vertex 4.73647 51.5734 27.025
      vertex 5.2 51.5 27.025
    endloop
  endfacet
  facet normal 0 0 -1
    outer loop
      vertex 3 48 27.025
      vertex 4.78203 49.092 27.025
      vertex 4.61804 48.8244 27.025
    endloop
  endfacet
  facet normal 0 0 -1
    outer loop
      vertex 3 48 27.025
      vertex 4.61804 48.8244 27.025
      vertex 4.41422 48.5858 27.025
    endloop
  endfacet
  facet normal 0 0 -1
    outer loop
      vertex 5 50.0157 27.025
      vertex 4.31832 51.7865 27.025
      vertex 4.73647 51.5734 27.025
    endloop
  endfacet
  facet normal 0 0 -1
    outer loop
      vertex 3 48 27.025
      vertex 4.41422 48.5858 27.025
      vertex 4.17558 48.382 27.025
    endloop
  endfacet
  facet normal -0 0 -1
    outer loop
      vertex 5 50.0157 27.025
      vertex 3 48 27.025
      vertex 4.31832 51.7865 27.025
    endloop
  endfacet
  facet normal 0 0 -1
    outer loop
      vertex 3 48 27.025
      vertex 4.17558 48.382 27.025
      vertex 3.90799 48.218 27.025
    endloop
  endfacet
  facet normal -0 0 -1
    outer loop
      vertex 4.31832 51.7865 27.025
      vertex 3 48 27.025
      vertex 3.98647 52.1183 27.025
    endloop
  endfacet
  facet normal -0 0 -1
    outer loop
      vertex 3.98647 52.1183 27.025
      vertex 3 48 27.025
      vertex 3.77341 52.5365 27.025
    endloop
  endfacet
  facet normal 0 0 -1
    outer loop
      vertex 3 48 27.025
      vertex 3.90799 48.218 27.025
      vertex 3.61804 48.0979 27.025
    endloop
  endfacet
  facet normal -0 0 -1
    outer loop
      vertex 7.62705 54.7634 27.025
      vertex 6.41352 53.8817 27.025
      vertex 7.32132 55.1213 27.025
    endloop
  endfacet
  facet normal 0 0 -1
    outer loop
      vertex 6.08168 54.2135 27.025
      vertex 7.32132 55.1213 27.025
      vertex 6.41352 53.8817 27.025
    endloop
  endfacet
  facet normal -0 0 -1
    outer loop
      vertex 7.32132 55.1213 27.025
      vertex 6.08168 54.2135 27.025
      vertex 6.96336 55.4271 27.025
    endloop
  endfacet
  facet normal -0 0 -1
    outer loop
      vertex 6.96336 55.4271 27.025
      vertex 6.08168 54.2135 27.025
      vertex 6.56197 55.673 27.025
    endloop
  endfacet
  facet normal 0 0 -1
    outer loop
      vertex 5.66352 54.4266 27.025
      vertex 6.56197 55.673 27.025
      vertex 6.08168 54.2135 27.025
    endloop
  endfacet
  facet normal -0 0 -1
    outer loop
      vertex 6.56197 55.673 27.025
      vertex 5.66352 54.4266 27.025
      vertex 6.12705 55.8532 27.025
    endloop
  endfacet
  facet normal -0 0 -1
    outer loop
      vertex 6.12705 55.8532 27.025
      vertex 5.66352 54.4266 27.025
      vertex 5.6693 55.9631 27.025
    endloop
  endfacet
  facet normal 0 0 -1
    outer loop
      vertex 5.2 54.5 27.025
      vertex 5.6693 55.9631 27.025
      vertex 5.66352 54.4266 27.025
    endloop
  endfacet
  facet normal 0 0 -1
    outer loop
      vertex 5.2 54.5 27.025
      vertex 5.2 56 27.025
      vertex 5.6693 55.9631 27.025
    endloop
  endfacet
  facet normal 0 0 -1
    outer loop
      vertex 4.7307 55.9631 27.025
      vertex 5.2 54.5 27.025
      vertex 4.73647 54.4266 27.025
    endloop
  endfacet
  facet normal 0 0 -1
    outer loop
      vertex 5.2 54.5 27.025
      vertex 4.7307 55.9631 27.025
      vertex 5.2 56 27.025
    endloop
  endfacet
  facet normal 0 0 -1
    outer loop
      vertex 3.9859 55.7343 27.025
      vertex 4.73647 54.4266 27.025
      vertex 4.31832 54.2135 27.025
    endloop
  endfacet
  facet normal 0 0 -1
    outer loop
      vertex 4.73647 54.4266 27.025
      vertex 4.27295 55.8532 27.025
      vertex 4.7307 55.9631 27.025
    endloop
  endfacet
  facet normal 0 0 -1
    outer loop
      vertex 3.9859 55.7343 27.025
      vertex 4.31832 54.2135 27.025
      vertex 3.98647 53.8817 27.025
    endloop
  endfacet
  facet normal 0 0 -1
    outer loop
      vertex 4.73647 54.4266 27.025
      vertex 3.9859 55.7343 27.025
      vertex 4.27295 55.8532 27.025
    endloop
  endfacet
  facet normal 0 0 -1
    outer loop
      vertex 3.98647 53.8817 27.025
      vertex 3.90799 55.782 27.025
      vertex 3.9859 55.7343 27.025
    endloop
  endfacet
  facet normal 0 0 -1
    outer loop
      vertex 3 56 27.025
      vertex 3.98647 53.8817 27.025
      vertex 3.77341 53.4635 27.025
    endloop
  endfacet
  facet normal 0 0 -1
    outer loop
      vertex 3 56 27.025
      vertex 3.77341 53.4635 27.025
      vertex 3.7 53 27.025
    endloop
  endfacet
  facet normal 0 0 -1
    outer loop
      vertex 3.98647 53.8817 27.025
      vertex 3.61804 55.9021 27.025
      vertex 3.90799 55.782 27.025
    endloop
  endfacet
  facet normal 0 0 -1
    outer loop
      vertex -3.77341 52.5365 27.025
      vertex 3.77341 52.5365 27.025
      vertex 3 48 27.025
    endloop
  endfacet
  facet normal 0 0 -1
    outer loop
      vertex 3 48 27.025
      vertex 3.61804 48.0979 27.025
      vertex 3.31288 48.0246 27.025
    endloop
  endfacet
  facet normal 0 0 -1
    outer loop
      vertex 3.77341 52.5365 27.025
      vertex -3.77341 52.5365 27.025
      vertex 3.7 53 27.025
    endloop
  endfacet
  facet normal 0 0 -1
    outer loop
      vertex 3.98647 53.8817 27.025
      vertex 3 56 27.025
      vertex 3.31288 55.9754 27.025
    endloop
  endfacet
  facet normal 0 0 -1
    outer loop
      vertex 3.98647 53.8817 27.025
      vertex 3.31288 55.9754 27.025
      vertex 3.61804 55.9021 27.025
    endloop
  endfacet
  facet normal 0 0 -1
    outer loop
      vertex -3.77341 52.5365 27.025
      vertex 3 48 27.025
      vertex -3 48 27.025
    endloop
  endfacet
  facet normal 0 -0 -1
    outer loop
      vertex -3.7 53 27.025
      vertex 3.7 53 27.025
      vertex -3.77341 52.5365 27.025
    endloop
  endfacet
  facet normal 0 0 -1
    outer loop
      vertex -5 50.0157 27.025
      vertex -3 48 27.025
      vertex -3.31287 48.0246 27.025
    endloop
  endfacet
  facet normal -0 0 -1
    outer loop
      vertex 3 56 27.025
      vertex -3.7 53 27.025
      vertex -3 56 27.025
    endloop
  endfacet
  facet normal 0 0 -1
    outer loop
      vertex -5 50.0157 27.025
      vertex -3.31287 48.0246 27.025
      vertex -3.61803 48.0979 27.025
    endloop
  endfacet
  facet normal 0 0 -1
    outer loop
      vertex -3.77341 53.4635 27.025
      vertex -3 56 27.025
      vertex -3.7 53 27.025
    endloop
  endfacet
  facet normal 0 0 -1
    outer loop
      vertex -3.98647 53.8817 27.025
      vertex -3 56 27.025
      vertex -3.77341 53.4635 27.025
    endloop
  endfacet
  facet normal 0 0 -1
    outer loop
      vertex 3.7 53 27.025
      vertex -3.7 53 27.025
      vertex 3 56 27.025
    endloop
  endfacet
  facet normal 0 0 -1
    outer loop
      vertex -5 50.0157 27.025
      vertex -3.61803 48.0979 27.025
      vertex -3.90797 48.218 27.025
    endloop
  endfacet
  facet normal 0 0 -1
    outer loop
      vertex -3 48 27.025
      vertex -3.98647 52.1183 27.025
      vertex -3.77341 52.5365 27.025
    endloop
  endfacet
  facet normal 0 0 -1
    outer loop
      vertex -5 50.0157 27.025
      vertex -3.90797 48.218 27.025
      vertex -4.17557 48.382 27.025
    endloop
  endfacet
  facet normal 0 0 -1
    outer loop
      vertex -3 48 27.025
      vertex -4.31832 51.7865 27.025
      vertex -3.98647 52.1183 27.025
    endloop
  endfacet
  facet normal 0 0 -1
    outer loop
      vertex -5 50.0157 27.025
      vertex -4.17557 48.382 27.025
      vertex -4.4142 48.5858 27.025
    endloop
  endfacet
  facet normal 0 0 -1
    outer loop
      vertex -5 50.0157 27.025
      vertex -4.4142 48.5858 27.025
      vertex -4.61803 48.8244 27.025
    endloop
  endfacet
  facet normal 0 0 -1
    outer loop
      vertex -3 48 27.025
      vertex -5 50.0157 27.025
      vertex -4.31832 51.7865 27.025
    endloop
  endfacet
  facet normal 0 0 -1
    outer loop
      vertex -5 50.0157 27.025
      vertex -4.61803 48.8244 27.025
      vertex -4.78201 49.092 27.025
    endloop
  endfacet
  facet normal 0 0 -1
    outer loop
      vertex -5 50.0157 27.025
      vertex -4.78201 49.092 27.025
      vertex -4.9021 49.382 27.025
    endloop
  endfacet
  facet normal 0 0 -1
    outer loop
      vertex -5 50.0157 27.025
      vertex -4.9021 49.382 27.025
      vertex -4.97537 49.6871 27.025
    endloop
  endfacet
  facet normal 0 0 -1
    outer loop
      vertex -5 50.0157 27.025
      vertex -4.97537 49.6871 27.025
      vertex -5 50 27.025
    endloop
  endfacet
  facet normal 0 0 -1
    outer loop
      vertex -4.31832 51.7865 27.025
      vertex -5 50.0157 27.025
      vertex -4.73647 51.5734 27.025
    endloop
  endfacet
  facet normal 0 0 -1
    outer loop
      vertex -5.2 51.5 27.025
      vertex -5 50.0157 27.025
      vertex -5.2 50 27.025
    endloop
  endfacet
  facet normal 0 0 -1
    outer loop
      vertex -5 50.0157 27.025
      vertex -5.2 51.5 27.025
      vertex -4.73647 51.5734 27.025
    endloop
  endfacet
  facet normal 0 0 -1
    outer loop
      vertex -5.6693 50.0369 27.025
      vertex -5.2 51.5 27.025
      vertex -5.2 50 27.025
    endloop
  endfacet
  facet normal -0 0 -1
    outer loop
      vertex -5.2 51.5 27.025
      vertex -5.6693 50.0369 27.025
      vertex -5.66352 51.5734 27.025
    endloop
  endfacet
  facet normal 0 0 -1
    outer loop
      vertex -6.12705 50.1468 27.025
      vertex -5.66352 51.5734 27.025
      vertex -5.6693 50.0369 27.025
    endloop
  endfacet
  facet normal 0 0 -1
    outer loop
      vertex -6.56197 50.327 27.025
      vertex -5.66352 51.5734 27.025
      vertex -6.12705 50.1468 27.025
    endloop
  endfacet
  facet normal -0 0 -1
    outer loop
      vertex -5.66352 51.5734 27.025
      vertex -6.56197 50.327 27.025
      vertex -6.08168 51.7865 27.025
    endloop
  endfacet
  facet normal 0 0 -1
    outer loop
      vertex -6.96336 50.5729 27.025
      vertex -6.08168 51.7865 27.025
      vertex -6.56197 50.327 27.025
    endloop
  endfacet
  facet normal 0 0 -1
    outer loop
      vertex -7.32132 50.8787 27.025
      vertex -6.08168 51.7865 27.025
      vertex -6.96336 50.5729 27.025
    endloop
  endfacet
  facet normal -0 0 -1
    outer loop
      vertex -6.08168 51.7865 27.025
      vertex -7.32132 50.8787 27.025
      vertex -6.41352 52.1183 27.025
    endloop
  endfacet
  facet normal 0 0 -1
    outer loop
      vertex -7.62705 51.2366 27.025
      vertex -6.41352 52.1183 27.025
      vertex -7.32132 50.8787 27.025
    endloop
  endfacet
  facet normal 0 0 -1
    outer loop
      vertex -3 56 27.025
      vertex -3.98647 53.8817 27.025
      vertex -3.31287 55.9754 27.025
    endloop
  endfacet
  facet normal 0 0 -1
    outer loop
      vertex -3.31287 55.9754 27.025
      vertex -3.98647 53.8817 27.025
      vertex -3.61803 55.9021 27.025
    endloop
  endfacet
  facet normal 0 0 -1
    outer loop
      vertex -3.61803 55.9021 27.025
      vertex -3.98647 53.8817 27.025
      vertex -3.90797 55.782 27.025
    endloop
  endfacet
  facet normal 0 0 -1
    outer loop
      vertex -3.90797 55.782 27.025
      vertex -3.98647 53.8817 27.025
      vertex -3.98589 55.7343 27.025
    endloop
  endfacet
  facet normal 0 0 -1
    outer loop
      vertex -4.31832 54.2135 27.025
      vertex -3.98589 55.7343 27.025
      vertex -3.98647 53.8817 27.025
    endloop
  endfacet
  facet normal 0 0 -1
    outer loop
      vertex -4.73647 54.4266 27.025
      vertex -3.98589 55.7343 27.025
      vertex -4.31832 54.2135 27.025
    endloop
  endfacet
  facet normal -0 0 -1
    outer loop
      vertex -3.98589 55.7343 27.025
      vertex -4.73647 54.4266 27.025
      vertex -4.27295 55.8532 27.025
    endloop
  endfacet
  facet normal -0 0 -1
    outer loop
      vertex -4.27295 55.8532 27.025
      vertex -4.73647 54.4266 27.025
      vertex -4.7307 55.9631 27.025
    endloop
  endfacet
  facet normal 0 0 -1
    outer loop
      vertex -5.2 54.5 27.025
      vertex -4.7307 55.9631 27.025
      vertex -4.73647 54.4266 27.025
    endloop
  endfacet
  facet normal 0 0 -1
    outer loop
      vertex -5.2 54.5 27.025
      vertex -5.2 56 27.025
      vertex -4.7307 55.9631 27.025
    endloop
  endfacet
  facet normal 0 0 -1
    outer loop
      vertex -5.6693 55.9631 27.025
      vertex -5.2 54.5 27.025
      vertex -5.66352 54.4266 27.025
    endloop
  endfacet
  facet normal 0 0 -1
    outer loop
      vertex -5.2 54.5 27.025
      vertex -5.6693 55.9631 27.025
      vertex -5.2 56 27.025
    endloop
  endfacet
  facet normal 0 0 -1
    outer loop
      vertex -6.56197 55.673 27.025
      vertex -5.66352 54.4266 27.025
      vertex -6.08168 54.2135 27.025
    endloop
  endfacet
  facet normal 0 0 -1
    outer loop
      vertex -5.66352 54.4266 27.025
      vertex -6.12705 55.8532 27.025
      vertex -5.6693 55.9631 27.025
    endloop
  endfacet
  facet normal 0 0 -1
    outer loop
      vertex -7.32132 55.1213 27.025
      vertex -6.08168 54.2135 27.025
      vertex -6.41352 53.8817 27.025
    endloop
  endfacet
  facet normal 0 0 -1
    outer loop
      vertex -5.66352 54.4266 27.025
      vertex -6.56197 55.673 27.025
      vertex -6.12705 55.8532 27.025
    endloop
  endfacet
  facet normal 0 0 -1
    outer loop
      vertex -7.87302 54.362 27.025
      vertex -6.41352 53.8817 27.025
      vertex -6.62658 53.4635 27.025
    endloop
  endfacet
  facet normal 0 0 -1
    outer loop
      vertex -8.16306 53.4693 27.025
      vertex -6.62658 53.4635 27.025
      vertex -6.7 53 27.025
    endloop
  endfacet
  facet normal 0 0 -1
    outer loop
      vertex -7.87302 51.638 27.025
      vertex -6.41352 52.1183 27.025
      vertex -7.62705 51.2366 27.025
    endloop
  endfacet
  facet normal 0 0 -1
    outer loop
      vertex -6.08168 54.2135 27.025
      vertex -6.96336 55.4271 27.025
      vertex -6.56197 55.673 27.025
    endloop
  endfacet
  facet normal -0 0 -1
    outer loop
      vertex -6.41352 52.1183 27.025
      vertex -7.87302 51.638 27.025
      vertex -6.62658 52.5365 27.025
    endloop
  endfacet
  facet normal 0 0 -1
    outer loop
      vertex -6.08168 54.2135 27.025
      vertex -7.32132 55.1213 27.025
      vertex -6.96336 55.4271 27.025
    endloop
  endfacet
  facet normal 0 0 -1
    outer loop
      vertex -8.05317 52.0729 27.025
      vertex -6.62658 52.5365 27.025
      vertex -7.87302 51.638 27.025
    endloop
  endfacet
  facet normal 0 0 -1
    outer loop
      vertex -6.41352 53.8817 27.025
      vertex -7.62705 54.7634 27.025
      vertex -7.32132 55.1213 27.025
    endloop
  endfacet
  facet normal 0 0 -1
    outer loop
      vertex -8.16306 52.5307 27.025
      vertex -6.62658 52.5365 27.025
      vertex -8.05317 52.0729 27.025
    endloop
  endfacet
  facet normal 0 0 -1
    outer loop
      vertex -6.41352 53.8817 27.025
      vertex -7.87302 54.362 27.025
      vertex -7.62705 54.7634 27.025
    endloop
  endfacet
  facet normal -0 0 -1
    outer loop
      vertex -6.62658 52.5365 27.025
      vertex -8.16306 52.5307 27.025
      vertex -6.7 53 27.025
    endloop
  endfacet
  facet normal 0 0 -1
    outer loop
      vertex -6.62658 53.4635 27.025
      vertex -8.05317 53.9271 27.025
      vertex -7.87302 54.362 27.025
    endloop
  endfacet
  facet normal 0 0 -1
    outer loop
      vertex -8.2 53 27.025
      vertex -6.7 53 27.025
      vertex -8.16306 52.5307 27.025
    endloop
  endfacet
  facet normal 0 0 -1
    outer loop
      vertex -6.62658 53.4635 27.025
      vertex -8.16306 53.4693 27.025
      vertex -8.05317 53.9271 27.025
    endloop
  endfacet
  facet normal 0 0 -1
    outer loop
      vertex -6.7 53 27.025
      vertex -8.2 53 27.025
      vertex -8.16306 53.4693 27.025
    endloop
  endfacet
endsolid OpenSCAD_Model
